<?xml version="1.0" standalone="no"?>
<!DOCTYPE svg PUBLIC "-//W3C//DTD SVG 20010904//EN"
 "http://www.w3.org/TR/2001/REC-SVG-20010904/DTD/svg10.dtd">
<svg version="1.0" xmlns="http://www.w3.org/2000/svg"
 width="512.000000pt" height="512.000000pt" viewBox="0 0 512.000000 512.000000"
 preserveAspectRatio="xMidYMid meet">

<g transform="translate(0.000000,512.000000) scale(0.100000,-0.100000)"
fill="#000000" stroke="none">
<path d="M2323 5110 c-598 -58 -1146 -316 -1571 -740 -397 -397 -640 -882
-729 -1460 -24 -161 -24 -539 0 -700 89 -577 330 -1059 727 -1458 397 -397
882 -640 1460 -729 161 -24 539 -24 700 0 577 89 1059 330 1458 727 397 397
640 882 729 1460 24 161 24 539 0 700 -89 577 -330 1059 -727 1458 -394 395
-885 641 -1450 727 -125 19 -468 27 -597 15z m562 -415 c462 -72 869 -279
1200 -610 334 -334 538 -738 612 -1210 12 -78 17 -170 17 -315 0 -145 -5 -237
-17 -315 -74 -472 -278 -876 -612 -1210 -334 -334 -738 -538 -1210 -612 -151
-24 -479 -24 -630 0 -472 74 -876 278 -1210 612 -334 334 -538 738 -612 1210
-24 151 -24 479 0 630 74 472 278 876 612 1210 368 368 805 572 1350 629 81 8
403 -4 500 -19z"/>
<path d="M2405 3820 c-361 -77 -620 -376 -642 -739 -4 -76 -2 -91 19 -130 33
-64 86 -103 147 -109 73 -7 113 4 159 43 47 41 66 87 80 198 18 140 97 251
222 311 60 29 73 31 170 31 97 0 110 -2 170 -31 160 -77 250 -249 222 -422
-30 -179 -169 -310 -354 -333 -109 -13 -121 -17 -162 -51 -73 -60 -76 -76 -76
-403 0 -282 1 -292 23 -335 12 -24 39 -58 60 -74 36 -29 45 -31 117 -31 72 0
81 2 117 31 21 16 48 50 61 74 20 41 22 57 22 225 l0 182 83 31 c196 75 353
222 441 414 56 121 70 187 70 333 0 146 -14 212 -69 332 -96 207 -261 355
-480 429 -68 23 -100 27 -220 30 -77 2 -158 -1 -180 -6z"/>
<path d="M2464 1566 c-46 -20 -102 -74 -127 -120 -30 -57 -30 -165 0 -222 25
-47 82 -101 129 -120 43 -18 145 -18 188 0 47 19 104 73 129 120 16 31 21 59
21 111 0 52 -5 80 -21 111 -25 47 -82 101 -129 120 -42 18 -149 17 -190 0z"/>
</g>
</svg>
