<?xml version="1.0" standalone="no"?>
<!DOCTYPE svg PUBLIC "-//W3C//DTD SVG 20010904//EN"
 "http://www.w3.org/TR/2001/REC-SVG-20010904/DTD/svg10.dtd">
<svg version="1.0" xmlns="http://www.w3.org/2000/svg"
 width="512.000000pt" height="512.000000pt" viewBox="0 0 512.000000 512.000000"
 preserveAspectRatio="xMidYMid meet">

<g transform="translate(0.000000,512.000000) scale(0.100000,-0.100000)"
fill="#000000" stroke="none">
<path d="M1632 4833 c-18 -9 -43 -30 -55 -47 -21 -30 -22 -42 -27 -301 l-5
-270 -90 -7 c-152 -11 -270 -64 -375 -168 -104 -105 -157 -223 -168 -375 l-7
-90 -270 -5 c-259 -5 -271 -6 -301 -27 -64 -46 -84 -149 -41 -214 12 -19 42
-44 67 -56 42 -22 55 -23 297 -23 l253 0 0 -265 0 -264 -269 -3 c-255 -3 -271
-4 -298 -24 -98 -73 -98 -195 0 -268 27 -20 43 -21 298 -24 l269 -3 0 -264 0
-265 -253 0 c-242 0 -255 -1 -297 -22 -25 -13 -55 -38 -67 -57 -43 -65 -23
-168 41 -214 30 -21 42 -22 301 -27 l270 -5 7 -90 c11 -152 64 -270 168 -375
105 -104 223 -157 375 -168 l90 -7 5 -270 c5 -259 6 -271 27 -301 66 -92 209
-84 267 16 20 32 21 54 24 298 l3 262 264 0 264 0 3 -269 c3 -255 4 -271 24
-298 73 -98 195 -98 268 0 20 27 21 43 24 298 l3 269 264 0 265 0 0 -253 c0
-242 1 -255 23 -297 12 -25 37 -55 56 -67 65 -43 168 -23 214 41 21 30 22 42
27 301 l5 270 90 7 c150 10 268 63 370 164 106 104 162 227 173 379 l7 90 270
5 c259 5 271 6 301 27 64 46 84 149 41 214 -12 19 -42 44 -67 57 -42 21 -55
22 -297 22 l-253 0 0 265 0 264 269 3 c255 3 271 4 298 24 98 73 98 195 0 268
-27 20 -43 21 -298 24 l-269 3 0 264 0 265 253 0 c242 0 255 1 297 23 25 12
55 37 67 56 43 65 23 168 -41 214 -30 21 -42 22 -301 27 l-270 5 -7 90 c-11
152 -64 270 -169 375 -68 68 -167 128 -249 150 -25 7 -83 16 -130 19 l-85 6
-5 270 c-5 259 -6 271 -27 301 -46 64 -149 84 -214 41 -19 -12 -44 -42 -56
-67 -22 -42 -23 -55 -23 -297 l0 -253 -265 0 -264 0 -3 269 c-3 255 -4 271
-24 298 -35 48 -82 73 -134 73 -52 0 -99 -25 -134 -73 -20 -27 -21 -43 -24
-298 l-3 -269 -264 0 -264 0 -3 263 c-3 243 -4 265 -24 297 -43 74 -134 102
-212 63z m2109 -966 c47 -23 103 -79 126 -126 17 -34 18 -95 18 -1181 0 -1282
6 -1176 -72 -1253 -77 -78 29 -72 -1253 -72 -1282 0 -1176 -6 -1253 72 -78 77
-72 -25 -75 1233 -2 832 0 1135 9 1165 21 75 86 142 163 172 23 9 314 11 1166
10 1075 -2 1137 -3 1171 -20z"/>
<path d="M1808 3556 c-99 -36 -175 -102 -225 -198 l-28 -53 0 -745 0 -745 28
-53 c40 -76 97 -134 169 -173 l63 -34 740 0 740 0 66 32 c79 39 140 102 177
181 l27 57 0 740 0 740 -34 63 c-39 71 -107 138 -178 173 l-48 24 -730 2
c-584 2 -737 0 -767 -11z m1430 -318 c17 -17 17 -1339 0 -1356 -17 -17 -1339
-17 -1356 0 -17 17 -17 1339 0 1356 17 17 1339 17 1356 0z"/>
</g>
</svg>
