<svg version="1.1" id="Layer_1" xmlns="http://www.w3.org/2000/svg" xmlns:xlink="http://www.w3.org/1999/xlink" x="0px" y="0px"
	 width="100%" viewBox="0 0 512 512" enable-background="new 0 0 512 512" xml:space="preserve">
<path fill="#000000" opacity="1.000000" stroke="none" 
	d="
M253.000000,1.000000 
	C255.041672,1.000000 257.083344,1.000000 259.662384,1.354418 
	C329.108307,32.358524 398.016846,63.008209 467.000000,93.691078 
	C467.000000,141.716965 467.188507,189.681351 466.863739,237.642242 
	C466.785278,249.225693 465.135010,260.810120 463.986298,272.372101 
	C462.113373,291.223450 457.225616,309.425415 451.196594,327.292938 
	C444.929047,345.867462 436.885681,363.663086 427.110382,380.725952 
	C416.607422,399.059021 404.492554,416.266327 390.385925,431.846344 
	C374.192749,449.730835 356.171448,465.744293 335.719116,478.855682 
	C321.623657,487.891785 307.301331,496.417786 291.492279,502.146454 
	C281.349121,505.822021 271.165497,509.386017 261.000000,513.000000 
	C257.969421,513.000000 254.938812,513.000000 251.343018,512.635132 
	C231.964874,506.306274 213.563339,499.478424 196.213776,489.813080 
	C176.839523,479.019775 159.094101,466.076569 142.794922,451.177765 
	C126.522247,436.303223 112.209099,419.636292 99.850304,401.342316 
	C87.944359,383.718658 77.713402,365.231903 69.693779,345.460815 
	C62.676468,328.160736 56.991798,310.493866 53.116947,292.275909 
	C49.307011,274.363098 47.130215,256.192230 47.046841,237.863586 
	C46.886196,202.547836 47.000000,167.230835 47.000000,131.914352 
	C47.000000,119.097427 47.000000,106.280502 47.000000,93.684029 
	C63.931763,86.144058 80.614128,78.745529 97.270256,71.288391 
	C110.733360,65.260811 124.134438,59.094112 137.617203,53.111179 
	C160.170441,43.103252 182.758179,33.172852 205.348862,23.249596 
	C216.346573,18.418705 227.443909,13.809899 238.376205,8.836877 
	C243.399628,6.551754 248.134354,3.631986 253.000000,1.000000 
M257.004486,257.871582 
	C257.004486,326.534302 257.004486,395.197021 257.004486,463.958221 
	C303.491608,449.320648 339.475983,421.106445 368.015137,383.268372 
	C396.128967,345.994324 412.899811,303.824249 419.218353,257.068542 
	C364.788361,257.068542 310.854340,257.068542 256.994385,256.125183 
	C256.994385,188.460388 256.994385,120.795593 256.994385,52.556377 
	C239.364105,60.511208 222.604172,68.152649 205.778229,75.645859 
	C182.938202,85.817368 160.040894,95.860184 137.181473,105.988220 
	C124.731796,111.504120 112.455025,117.452812 99.791603,122.419273 
	C95.682167,124.030952 94.920097,125.829185 94.930672,129.669525 
	C95.042564,170.319427 95.000000,210.969788 95.000000,251.620010 
	C95.000000,253.372665 95.000000,255.125320 95.000000,256.926666 
	C149.461609,256.926666 203.262054,256.926666 257.004486,257.871582 
z"/>
<path fill="#FFFFFF" opacity="1.000000" stroke="none" 
	d="
M261.468658,513.000000 
	C271.165497,509.386017 281.349121,505.822021 291.492279,502.146454 
	C307.301331,496.417786 321.623657,487.891785 335.719116,478.855682 
	C356.171448,465.744293 374.192749,449.730835 390.385925,431.846344 
	C404.492554,416.266327 416.607422,399.059021 427.110382,380.725952 
	C436.885681,363.663086 444.929047,345.867462 451.196594,327.292938 
	C457.225616,309.425415 462.113373,291.223450 463.986298,272.372101 
	C465.135010,260.810120 466.785278,249.225693 466.863739,237.642242 
	C467.188507,189.681351 467.000000,141.716965 467.000000,93.691078 
	C398.016846,63.008209 329.108307,32.358524 260.099884,1.354418 
	C344.297028,1.000000 428.594086,1.000000 512.945557,1.000000 
	C512.945557,171.556931 512.945557,342.113892 512.945557,513.000000 
	C429.312714,513.000000 345.625031,513.000000 261.468658,513.000000 
z"/>
<path fill="#FFFFFF" opacity="1.000000" stroke="none" 
	d="
M252.531342,1.000000 
	C248.134354,3.631986 243.399628,6.551754 238.376205,8.836877 
	C227.443909,13.809899 216.346573,18.418705 205.348862,23.249596 
	C182.758179,33.172852 160.170441,43.103252 137.617203,53.111179 
	C124.134438,59.094112 110.733360,65.260811 97.270256,71.288391 
	C80.614128,78.745529 63.931763,86.144058 47.000000,93.684029 
	C47.000000,106.280502 47.000000,119.097427 47.000000,131.914352 
	C47.000000,167.230835 46.886196,202.547836 47.046841,237.863586 
	C47.130215,256.192230 49.307011,274.363098 53.116947,292.275909 
	C56.991798,310.493866 62.676468,328.160736 69.693779,345.460815 
	C77.713402,365.231903 87.944359,383.718658 99.850304,401.342316 
	C112.209099,419.636292 126.522247,436.303223 142.794922,451.177765 
	C159.094101,466.076569 176.839523,479.019775 196.213776,489.813080 
	C213.563339,499.478424 231.964874,506.306274 250.888916,512.635132 
	C167.702621,513.000000 84.405258,513.000000 1.053942,513.000000 
	C1.053942,342.442963 1.053942,171.885895 1.053942,1.000000 
	C84.687271,1.000000 168.374985,1.000000 252.531342,1.000000 
z"/>
<path fill="#FFFFFF" opacity="1.000000" stroke="none" 
	d="
M257.062500,256.926666 
	C203.262054,256.926666 149.461609,256.926666 95.000000,256.926666 
	C95.000000,255.125320 95.000000,253.372665 95.000000,251.620010 
	C95.000000,210.969788 95.042564,170.319427 94.930672,129.669525 
	C94.920097,125.829185 95.682167,124.030952 99.791603,122.419273 
	C112.455025,117.452812 124.731796,111.504120 137.181473,105.988220 
	C160.040894,95.860184 182.938202,85.817368 205.778229,75.645859 
	C222.604172,68.152649 239.364105,60.511208 256.994385,52.556377 
	C256.994385,120.795593 256.994385,188.460388 256.994019,256.562531 
	C256.993683,256.999878 257.062500,256.926666 257.062500,256.926666 
z"/>
<path fill="#FFFFFF" opacity="1.000000" stroke="none" 
	d="
M256.957031,257.034210 
	C310.854340,257.068542 364.788361,257.068542 419.218353,257.068542 
	C412.899811,303.824249 396.128967,345.994324 368.015137,383.268372 
	C339.475983,421.106445 303.491608,449.320648 257.004486,463.958221 
	C257.004486,395.197021 257.004486,326.534302 257.033508,257.399109 
	C257.062500,256.926666 256.993683,256.999878 256.957031,257.034210 
z"/>
</svg>