<svg version="1.1" id="Layer_1" xmlns="http://www.w3.org/2000/svg" xmlns:xlink="http://www.w3.org/1999/xlink" x="0px" y="0px"
	 width="100%" viewBox="0 0 512 512" enable-background="new 0 0 512 512" xml:space="preserve">
<path fill="#FFFFFF" opacity="1.000000" stroke="none" 
	d="
M1.000002,333.000000 
	C1.000000,222.374237 1.000000,111.748459 1.000000,1.061345 
	C171.562683,1.061345 342.125397,1.061345 513.000000,1.061345 
	C513.000000,112.354576 513.000000,223.709442 512.615051,335.396576 
	C511.966858,334.127991 511.822418,332.496735 511.422058,330.930939 
	C507.391144,315.166626 499.469818,301.919342 486.916687,291.290680 
	C475.176025,281.349792 461.666992,275.312683 446.645691,274.249817 
	C430.912140,273.136505 415.038666,274.000916 399.721039,274.000916 
	C401.505554,283.512878 404.680237,292.813324 404.764374,302.141663 
	C405.248230,355.785492 405.041809,409.436035 404.912628,463.083923 
	C404.903320,466.955444 403.647766,470.823944 403.092621,474.001495 
	C426.429779,474.001495 449.322205,474.125153 472.212372,473.951904 
	C484.548401,473.858551 494.891388,468.604370 502.218750,458.951874 
	C506.735474,453.001892 509.467010,445.696747 513.000000,439.000000 
	C513.000000,463.650299 513.000000,488.300568 513.000000,512.947754 
	C342.333313,512.944702 171.666656,512.944702 1.000000,512.944702 
	C1.000000,489.571503 1.000000,466.253601 1.357784,442.560364 
	C2.140427,442.859283 2.692313,443.485077 2.971081,444.215088 
	C7.120382,455.081757 13.688910,463.571228 24.313505,469.205017 
	C32.248585,473.412689 40.563782,474.711731 49.088882,474.890167 
	C66.567268,475.256012 84.058662,475.000000 101.544701,475.000000 
	C104.665848,475.000000 107.787003,475.000000 109.955109,475.000000 
	C109.627602,463.541565 109.072037,452.563507 109.043106,441.584045 
	C108.935204,400.617065 109.175262,359.648438 108.908562,318.682892 
	C108.810158,303.567535 109.674896,288.720673 115.291107,274.000000 
	C100.334160,274.000000 85.878593,273.923676 71.424812,274.050476 
	C67.518341,274.084717 63.496948,274.248413 59.733368,275.180573 
	C36.393810,280.961395 18.529865,293.886261 8.048478,315.968140 
	C5.417199,321.511658 3.334703,327.315704 1.000002,333.000000 
M137.000000,332.500000 
	C137.000000,373.650604 136.909775,414.801514 137.053009,455.951630 
	C137.098099,468.903931 142.903473,474.938751 156.232224,474.957214 
	C223.372528,475.050323 290.513062,475.039398 357.653442,474.966431 
	C370.925201,474.951996 376.947418,469.000061 376.969879,455.566345 
	C377.047882,408.918060 377.078583,362.269226 376.911591,315.621368 
	C376.887695,308.960785 376.001678,302.252441 374.951721,295.655792 
	C371.675415,275.071350 360.348206,259.710419 343.553131,247.898117 
	C330.757690,238.898819 316.244843,235.354675 301.038391,235.122116 
	C273.055847,234.694183 245.062088,234.973236 217.073059,235.010788 
	C202.123535,235.030853 187.616348,237.394806 174.600693,245.155930 
	C157.307663,255.467590 145.439529,270.260468 140.039413,289.821899 
	C136.269531,303.477905 136.981857,317.530457 137.000000,332.500000 
M338.971588,92.707428 
	C333.243896,79.783569 325.056274,68.467148 314.056305,59.795517 
	C295.738556,45.355011 274.982697,38.210400 251.119186,39.781704 
	C234.923599,40.848106 220.434753,45.867157 207.171158,54.500259 
	C189.359024,66.093925 177.386826,82.674660 171.288040,102.817818 
	C166.907150,117.287094 166.683060,132.284027 169.852066,147.410797 
	C174.344223,168.853439 185.210876,186.449417 202.257812,199.389511 
	C223.407852,215.444229 247.523819,221.356659 274.228180,216.144745 
	C299.598236,211.193207 319.366119,197.791962 332.590057,176.331818 
	C348.630920,150.300201 351.008728,122.208069 338.971588,92.707428 
M38.956413,164.402237 
	C34.313374,175.794006 32.852718,187.441422 34.911674,199.710327 
	C37.979649,217.991791 46.782032,232.488586 61.766026,243.323761 
	C76.851120,254.232056 93.483086,257.900848 111.908119,255.092468 
	C129.259201,252.447739 143.152435,243.804459 153.624710,230.445923 
	C165.083771,215.828644 169.791046,198.910263 167.160583,179.959549 
	C165.318268,166.686874 160.222916,155.031403 151.583923,145.310471 
	C134.753876,126.372612 113.021797,118.707870 88.288834,123.270256 
	C65.020187,127.562523 48.455887,141.627914 38.956413,164.402237 
M475.039154,213.653427 
	C476.692200,207.807114 479.333893,202.040710 479.813965,196.099609 
	C481.290558,177.826263 476.807465,160.880478 464.971130,146.624191 
	C447.129395,125.134682 419.024689,116.182785 391.599030,125.941597 
	C365.937042,135.072845 350.952606,153.284973 346.913879,180.515030 
	C344.571075,196.310898 347.737213,210.857391 356.092712,224.097534 
	C372.722229,250.448761 399.655914,260.459412 427.050018,254.709579 
	C449.614838,249.973358 466.053223,236.252838 475.039154,213.653427 
z"/>
<path fill="#000000" opacity="1.000000" stroke="none" 
	d="
M1.000002,333.468658 
	C3.334703,327.315704 5.417199,321.511658 8.048478,315.968140 
	C18.529865,293.886261 36.393810,280.961395 59.733368,275.180573 
	C63.496948,274.248413 67.518341,274.084717 71.424812,274.050476 
	C85.878593,273.923676 100.334160,274.000000 115.291107,274.000000 
	C109.674896,288.720673 108.810158,303.567535 108.908562,318.682892 
	C109.175262,359.648438 108.935204,400.617065 109.043106,441.584045 
	C109.072037,452.563507 109.627602,463.541565 109.955109,475.000000 
	C107.787003,475.000000 104.665848,475.000000 101.544701,475.000000 
	C84.058662,475.000000 66.567268,475.256012 49.088882,474.890167 
	C40.563782,474.711731 32.248585,473.412689 24.313505,469.205017 
	C13.688910,463.571228 7.120382,455.081757 2.971081,444.215088 
	C2.692313,443.485077 2.140427,442.859283 1.357784,442.092529 
	C1.000000,405.979095 1.000000,369.958221 1.000002,333.468658 
z"/>
<path fill="#000000" opacity="1.000000" stroke="none" 
	d="
M513.000000,438.531372 
	C509.467010,445.696747 506.735474,453.001892 502.218750,458.951874 
	C494.891388,468.604370 484.548401,473.858551 472.212372,473.951904 
	C449.322205,474.125153 426.429779,474.001495 403.092621,474.001495 
	C403.647766,470.823944 404.903320,466.955444 404.912628,463.083923 
	C405.041809,409.436035 405.248230,355.785492 404.764374,302.141663 
	C404.680237,292.813324 401.505554,283.512878 399.721039,274.000916 
	C415.038666,274.000916 430.912140,273.136505 446.645691,274.249817 
	C461.666992,275.312683 475.176025,281.349792 486.916687,291.290680 
	C499.469818,301.919342 507.391144,315.166626 511.422058,330.930939 
	C511.822418,332.496735 511.966858,334.127991 512.615051,335.864441 
	C513.000000,370.020905 513.000000,404.041779 513.000000,438.531372 
z"/>
<path fill="#000000" opacity="1.000000" stroke="none" 
	d="
M137.000000,332.000000 
	C136.981857,317.530457 136.269531,303.477905 140.039413,289.821899 
	C145.439529,270.260468 157.307663,255.467590 174.600693,245.155930 
	C187.616348,237.394806 202.123535,235.030853 217.073059,235.010788 
	C245.062088,234.973236 273.055847,234.694183 301.038391,235.122116 
	C316.244843,235.354675 330.757690,238.898819 343.553131,247.898117 
	C360.348206,259.710419 371.675415,275.071350 374.951721,295.655792 
	C376.001678,302.252441 376.887695,308.960785 376.911591,315.621368 
	C377.078583,362.269226 377.047882,408.918060 376.969879,455.566345 
	C376.947418,469.000061 370.925201,474.951996 357.653442,474.966431 
	C290.513062,475.039398 223.372528,475.050323 156.232224,474.957214 
	C142.903473,474.938751 137.098099,468.903931 137.053009,455.951630 
	C136.909775,414.801514 137.000000,373.650604 137.000000,332.000000 
z"/>
<path fill="#000000" opacity="1.000000" stroke="none" 
	d="
M339.008606,93.101372 
	C351.008728,122.208069 348.630920,150.300201 332.590057,176.331818 
	C319.366119,197.791962 299.598236,211.193207 274.228180,216.144745 
	C247.523819,221.356659 223.407852,215.444229 202.257812,199.389511 
	C185.210876,186.449417 174.344223,168.853439 169.852066,147.410797 
	C166.683060,132.284027 166.907150,117.287094 171.288040,102.817818 
	C177.386826,82.674660 189.359024,66.093925 207.171158,54.500259 
	C220.434753,45.867157 234.923599,40.848106 251.119186,39.781704 
	C274.982697,38.210400 295.738556,45.355011 314.056305,59.795517 
	C325.056274,68.467148 333.243896,79.783569 339.008606,93.101372 
z"/>
<path fill="#000000" opacity="1.000000" stroke="none" 
	d="
M38.977497,163.999680 
	C48.455887,141.627914 65.020187,127.562523 88.288834,123.270256 
	C113.021797,118.707870 134.753876,126.372612 151.583923,145.310471 
	C160.222916,155.031403 165.318268,166.686874 167.160583,179.959549 
	C169.791046,198.910263 165.083771,215.828644 153.624710,230.445923 
	C143.152435,243.804459 129.259201,252.447739 111.908119,255.092468 
	C93.483086,257.900848 76.851120,254.232056 61.766026,243.323761 
	C46.782032,232.488586 37.979649,217.991791 34.911674,199.710327 
	C32.852718,187.441422 34.313374,175.794006 38.977497,163.999680 
z"/>
<path fill="#000000" opacity="1.000000" stroke="none" 
	d="
M475.020020,214.052231 
	C466.053223,236.252838 449.614838,249.973358 427.050018,254.709579 
	C399.655914,260.459412 372.722229,250.448761 356.092712,224.097534 
	C347.737213,210.857391 344.571075,196.310898 346.913879,180.515030 
	C350.952606,153.284973 365.937042,135.072845 391.599030,125.941597 
	C419.024689,116.182785 447.129395,125.134682 464.971130,146.624191 
	C476.807465,160.880478 481.290558,177.826263 479.813965,196.099609 
	C479.333893,202.040710 476.692200,207.807114 475.020020,214.052231 
z"/>
</svg>